<mxfile host="app.diagrams.net" modified="2023-11-28T18:43:08.360Z" agent="Mozilla/5.0 (Macintosh; Intel Mac OS X 10_15_7) AppleWebKit/537.36 (KHTML, like Gecko) Chrome/119.0.0.0 Safari/537.36" etag="MCFExlPUDHLLH5tjI7m2" version="22.1.4" type="device">
  <diagram name="Page-1" id="0DFRcew3-hTUfaSDMJ8z">
    <mxGraphModel dx="2618" dy="1515" grid="1" gridSize="10" guides="1" tooltips="1" connect="1" arrows="1" fold="1" page="1" pageScale="1" pageWidth="1920" pageHeight="1200" math="0" shadow="0">
      <root>
        <mxCell id="0" />
        <mxCell id="1" parent="0" />
        <mxCell id="9tO-GS4h1mKYMsfafJvD-3" value="" style="rounded=0;whiteSpace=wrap;html=1;" vertex="1" parent="1">
          <mxGeometry x="530" y="60" width="1070" height="50" as="geometry" />
        </mxCell>
        <mxCell id="9tO-GS4h1mKYMsfafJvD-19" value="&lt;font style=&quot;font-size: 20px;&quot;&gt;Program&lt;/font&gt;" style="text;html=1;strokeColor=none;fillColor=none;align=center;verticalAlign=middle;whiteSpace=wrap;rounded=0;" vertex="1" parent="1">
          <mxGeometry x="1010" width="110" height="60" as="geometry" />
        </mxCell>
        <mxCell id="9tO-GS4h1mKYMsfafJvD-64" value="plugin 1" style="rounded=0;whiteSpace=wrap;html=1;" vertex="1" parent="1">
          <mxGeometry x="260" y="160" width="80" height="30" as="geometry" />
        </mxCell>
        <mxCell id="9tO-GS4h1mKYMsfafJvD-65" value="plugin 2" style="rounded=0;whiteSpace=wrap;html=1;" vertex="1" parent="1">
          <mxGeometry x="260" y="210" width="80" height="30" as="geometry" />
        </mxCell>
        <mxCell id="9tO-GS4h1mKYMsfafJvD-66" value="plugin 3" style="rounded=0;whiteSpace=wrap;html=1;" vertex="1" parent="1">
          <mxGeometry x="260" y="260" width="80" height="30" as="geometry" />
        </mxCell>
        <mxCell id="9tO-GS4h1mKYMsfafJvD-67" value="plugin 4" style="rounded=0;whiteSpace=wrap;html=1;" vertex="1" parent="1">
          <mxGeometry x="260" y="310" width="80" height="30" as="geometry" />
        </mxCell>
        <mxCell id="9tO-GS4h1mKYMsfafJvD-68" value="plugin 5" style="rounded=0;whiteSpace=wrap;html=1;" vertex="1" parent="1">
          <mxGeometry x="260" y="360" width="80" height="30" as="geometry" />
        </mxCell>
        <mxCell id="9tO-GS4h1mKYMsfafJvD-69" value="plugin 6" style="rounded=0;whiteSpace=wrap;html=1;" vertex="1" parent="1">
          <mxGeometry x="260" y="410" width="80" height="30" as="geometry" />
        </mxCell>
        <mxCell id="9tO-GS4h1mKYMsfafJvD-70" value="plugin 7" style="rounded=0;whiteSpace=wrap;html=1;" vertex="1" parent="1">
          <mxGeometry x="260" y="460" width="80" height="30" as="geometry" />
        </mxCell>
        <mxCell id="9tO-GS4h1mKYMsfafJvD-71" value="plugin 8" style="rounded=0;whiteSpace=wrap;html=1;" vertex="1" parent="1">
          <mxGeometry x="260" y="510" width="80" height="30" as="geometry" />
        </mxCell>
        <mxCell id="9tO-GS4h1mKYMsfafJvD-72" value="plugin 9" style="rounded=0;whiteSpace=wrap;html=1;" vertex="1" parent="1">
          <mxGeometry x="260" y="560" width="80" height="30" as="geometry" />
        </mxCell>
        <mxCell id="9tO-GS4h1mKYMsfafJvD-73" value="plugin 10" style="rounded=0;whiteSpace=wrap;html=1;" vertex="1" parent="1">
          <mxGeometry x="260" y="610" width="80" height="30" as="geometry" />
        </mxCell>
        <mxCell id="9tO-GS4h1mKYMsfafJvD-74" value="plugin 11" style="rounded=0;whiteSpace=wrap;html=1;" vertex="1" parent="1">
          <mxGeometry x="260" y="660" width="80" height="30" as="geometry" />
        </mxCell>
        <mxCell id="9tO-GS4h1mKYMsfafJvD-75" value="plugin 12" style="rounded=0;whiteSpace=wrap;html=1;" vertex="1" parent="1">
          <mxGeometry x="260" y="710" width="80" height="30" as="geometry" />
        </mxCell>
        <mxCell id="9tO-GS4h1mKYMsfafJvD-76" value="plugin 13" style="rounded=0;whiteSpace=wrap;html=1;" vertex="1" parent="1">
          <mxGeometry x="260" y="760" width="80" height="30" as="geometry" />
        </mxCell>
        <mxCell id="9tO-GS4h1mKYMsfafJvD-77" value="plugin 14" style="rounded=0;whiteSpace=wrap;html=1;" vertex="1" parent="1">
          <mxGeometry x="260" y="810" width="80" height="30" as="geometry" />
        </mxCell>
        <mxCell id="9tO-GS4h1mKYMsfafJvD-78" value="plugin 15" style="rounded=0;whiteSpace=wrap;html=1;" vertex="1" parent="1">
          <mxGeometry x="260" y="860" width="80" height="30" as="geometry" />
        </mxCell>
        <mxCell id="9tO-GS4h1mKYMsfafJvD-79" value="level&amp;nbsp;" style="rounded=0;whiteSpace=wrap;html=1;" vertex="1" parent="1">
          <mxGeometry x="340" y="160" width="80" height="30" as="geometry" />
        </mxCell>
        <mxCell id="9tO-GS4h1mKYMsfafJvD-80" value="plugin 2" style="rounded=0;whiteSpace=wrap;html=1;" vertex="1" parent="1">
          <mxGeometry x="340" y="210" width="80" height="30" as="geometry" />
        </mxCell>
        <mxCell id="9tO-GS4h1mKYMsfafJvD-81" value="plugin 3" style="rounded=0;whiteSpace=wrap;html=1;" vertex="1" parent="1">
          <mxGeometry x="340" y="260" width="80" height="30" as="geometry" />
        </mxCell>
        <mxCell id="9tO-GS4h1mKYMsfafJvD-82" value="plugin 4" style="rounded=0;whiteSpace=wrap;html=1;" vertex="1" parent="1">
          <mxGeometry x="340" y="310" width="80" height="30" as="geometry" />
        </mxCell>
        <mxCell id="9tO-GS4h1mKYMsfafJvD-83" value="plugin 5" style="rounded=0;whiteSpace=wrap;html=1;" vertex="1" parent="1">
          <mxGeometry x="340" y="360" width="80" height="30" as="geometry" />
        </mxCell>
        <mxCell id="9tO-GS4h1mKYMsfafJvD-84" value="plugin 6" style="rounded=0;whiteSpace=wrap;html=1;" vertex="1" parent="1">
          <mxGeometry x="340" y="410" width="80" height="30" as="geometry" />
        </mxCell>
        <mxCell id="9tO-GS4h1mKYMsfafJvD-85" value="plugin 7" style="rounded=0;whiteSpace=wrap;html=1;" vertex="1" parent="1">
          <mxGeometry x="340" y="460" width="80" height="30" as="geometry" />
        </mxCell>
        <mxCell id="9tO-GS4h1mKYMsfafJvD-86" value="plugin 8" style="rounded=0;whiteSpace=wrap;html=1;" vertex="1" parent="1">
          <mxGeometry x="340" y="510" width="80" height="30" as="geometry" />
        </mxCell>
        <mxCell id="9tO-GS4h1mKYMsfafJvD-87" value="plugin 9" style="rounded=0;whiteSpace=wrap;html=1;" vertex="1" parent="1">
          <mxGeometry x="340" y="560" width="80" height="30" as="geometry" />
        </mxCell>
        <mxCell id="9tO-GS4h1mKYMsfafJvD-88" value="plugin 10" style="rounded=0;whiteSpace=wrap;html=1;" vertex="1" parent="1">
          <mxGeometry x="340" y="610" width="80" height="30" as="geometry" />
        </mxCell>
        <mxCell id="9tO-GS4h1mKYMsfafJvD-89" value="plugin 11" style="rounded=0;whiteSpace=wrap;html=1;" vertex="1" parent="1">
          <mxGeometry x="340" y="660" width="80" height="30" as="geometry" />
        </mxCell>
        <mxCell id="9tO-GS4h1mKYMsfafJvD-90" value="plugin 12" style="rounded=0;whiteSpace=wrap;html=1;" vertex="1" parent="1">
          <mxGeometry x="340" y="710" width="80" height="30" as="geometry" />
        </mxCell>
        <mxCell id="9tO-GS4h1mKYMsfafJvD-91" value="plugin 13" style="rounded=0;whiteSpace=wrap;html=1;" vertex="1" parent="1">
          <mxGeometry x="340" y="760" width="80" height="30" as="geometry" />
        </mxCell>
        <mxCell id="9tO-GS4h1mKYMsfafJvD-92" value="plugin 14" style="rounded=0;whiteSpace=wrap;html=1;" vertex="1" parent="1">
          <mxGeometry x="340" y="810" width="80" height="30" as="geometry" />
        </mxCell>
        <mxCell id="9tO-GS4h1mKYMsfafJvD-93" value="plugin 15" style="rounded=0;whiteSpace=wrap;html=1;" vertex="1" parent="1">
          <mxGeometry x="340" y="860" width="80" height="30" as="geometry" />
        </mxCell>
        <mxCell id="9tO-GS4h1mKYMsfafJvD-94" value="NO" style="rounded=0;whiteSpace=wrap;html=1;" vertex="1" parent="1">
          <mxGeometry x="420" y="160" width="80" height="30" as="geometry" />
        </mxCell>
        <mxCell id="9tO-GS4h1mKYMsfafJvD-95" value="plugin 2" style="rounded=0;whiteSpace=wrap;html=1;" vertex="1" parent="1">
          <mxGeometry x="420" y="210" width="80" height="30" as="geometry" />
        </mxCell>
        <mxCell id="9tO-GS4h1mKYMsfafJvD-96" value="plugin 3" style="rounded=0;whiteSpace=wrap;html=1;" vertex="1" parent="1">
          <mxGeometry x="420" y="260" width="80" height="30" as="geometry" />
        </mxCell>
        <mxCell id="9tO-GS4h1mKYMsfafJvD-97" value="plugin 4" style="rounded=0;whiteSpace=wrap;html=1;" vertex="1" parent="1">
          <mxGeometry x="420" y="310" width="80" height="30" as="geometry" />
        </mxCell>
        <mxCell id="9tO-GS4h1mKYMsfafJvD-98" value="plugin 5" style="rounded=0;whiteSpace=wrap;html=1;" vertex="1" parent="1">
          <mxGeometry x="420" y="360" width="80" height="30" as="geometry" />
        </mxCell>
        <mxCell id="9tO-GS4h1mKYMsfafJvD-99" value="plugin 6" style="rounded=0;whiteSpace=wrap;html=1;" vertex="1" parent="1">
          <mxGeometry x="420" y="410" width="80" height="30" as="geometry" />
        </mxCell>
        <mxCell id="9tO-GS4h1mKYMsfafJvD-100" value="plugin 7" style="rounded=0;whiteSpace=wrap;html=1;" vertex="1" parent="1">
          <mxGeometry x="420" y="460" width="80" height="30" as="geometry" />
        </mxCell>
        <mxCell id="9tO-GS4h1mKYMsfafJvD-101" value="plugin 8" style="rounded=0;whiteSpace=wrap;html=1;" vertex="1" parent="1">
          <mxGeometry x="420" y="510" width="80" height="30" as="geometry" />
        </mxCell>
        <mxCell id="9tO-GS4h1mKYMsfafJvD-102" value="plugin 9" style="rounded=0;whiteSpace=wrap;html=1;" vertex="1" parent="1">
          <mxGeometry x="420" y="560" width="80" height="30" as="geometry" />
        </mxCell>
        <mxCell id="9tO-GS4h1mKYMsfafJvD-103" value="plugin 10" style="rounded=0;whiteSpace=wrap;html=1;" vertex="1" parent="1">
          <mxGeometry x="420" y="610" width="80" height="30" as="geometry" />
        </mxCell>
        <mxCell id="9tO-GS4h1mKYMsfafJvD-104" value="plugin 11" style="rounded=0;whiteSpace=wrap;html=1;" vertex="1" parent="1">
          <mxGeometry x="420" y="660" width="80" height="30" as="geometry" />
        </mxCell>
        <mxCell id="9tO-GS4h1mKYMsfafJvD-105" value="plugin 12" style="rounded=0;whiteSpace=wrap;html=1;" vertex="1" parent="1">
          <mxGeometry x="420" y="710" width="80" height="30" as="geometry" />
        </mxCell>
        <mxCell id="9tO-GS4h1mKYMsfafJvD-106" value="plugin 13" style="rounded=0;whiteSpace=wrap;html=1;" vertex="1" parent="1">
          <mxGeometry x="420" y="760" width="80" height="30" as="geometry" />
        </mxCell>
        <mxCell id="9tO-GS4h1mKYMsfafJvD-107" value="plugin 14" style="rounded=0;whiteSpace=wrap;html=1;" vertex="1" parent="1">
          <mxGeometry x="420" y="810" width="80" height="30" as="geometry" />
        </mxCell>
        <mxCell id="9tO-GS4h1mKYMsfafJvD-108" value="plugin 15" style="rounded=0;whiteSpace=wrap;html=1;" vertex="1" parent="1">
          <mxGeometry x="420" y="860" width="80" height="30" as="geometry" />
        </mxCell>
        <mxCell id="9tO-GS4h1mKYMsfafJvD-109" value="" style="group" vertex="1" connectable="0" parent="1">
          <mxGeometry x="550" y="70" width="190" height="30" as="geometry" />
        </mxCell>
        <mxCell id="9tO-GS4h1mKYMsfafJvD-5" value="opcode 1" style="rounded=0;whiteSpace=wrap;html=1;" vertex="1" parent="9tO-GS4h1mKYMsfafJvD-109">
          <mxGeometry width="70" height="30" as="geometry" />
        </mxCell>
        <mxCell id="9tO-GS4h1mKYMsfafJvD-7" value="parameter struct 1" style="rounded=0;whiteSpace=wrap;html=1;" vertex="1" parent="9tO-GS4h1mKYMsfafJvD-109">
          <mxGeometry x="70" width="120" height="30" as="geometry" />
        </mxCell>
        <mxCell id="9tO-GS4h1mKYMsfafJvD-110" value="" style="group" vertex="1" connectable="0" parent="1">
          <mxGeometry x="760" y="70" width="190" height="30" as="geometry" />
        </mxCell>
        <mxCell id="9tO-GS4h1mKYMsfafJvD-8" value="opcode 2" style="rounded=0;whiteSpace=wrap;html=1;" vertex="1" parent="9tO-GS4h1mKYMsfafJvD-110">
          <mxGeometry width="70" height="30" as="geometry" />
        </mxCell>
        <mxCell id="9tO-GS4h1mKYMsfafJvD-10" value="parameter struct 2" style="rounded=0;whiteSpace=wrap;html=1;" vertex="1" parent="9tO-GS4h1mKYMsfafJvD-110">
          <mxGeometry x="70" width="120" height="30" as="geometry" />
        </mxCell>
        <mxCell id="9tO-GS4h1mKYMsfafJvD-111" value="" style="group" vertex="1" connectable="0" parent="1">
          <mxGeometry x="970" y="70" width="190" height="30" as="geometry" />
        </mxCell>
        <mxCell id="9tO-GS4h1mKYMsfafJvD-11" value="opcode 3" style="rounded=0;whiteSpace=wrap;html=1;" vertex="1" parent="9tO-GS4h1mKYMsfafJvD-111">
          <mxGeometry width="70" height="30" as="geometry" />
        </mxCell>
        <mxCell id="9tO-GS4h1mKYMsfafJvD-13" value="parameter struct 3" style="rounded=0;whiteSpace=wrap;html=1;" vertex="1" parent="9tO-GS4h1mKYMsfafJvD-111">
          <mxGeometry x="70" width="120" height="30" as="geometry" />
        </mxCell>
        <mxCell id="9tO-GS4h1mKYMsfafJvD-112" value="" style="group" vertex="1" connectable="0" parent="1">
          <mxGeometry x="1180" y="70" width="190" height="30" as="geometry" />
        </mxCell>
        <mxCell id="9tO-GS4h1mKYMsfafJvD-14" value="opcode 4" style="rounded=0;whiteSpace=wrap;html=1;" vertex="1" parent="9tO-GS4h1mKYMsfafJvD-112">
          <mxGeometry width="70" height="30" as="geometry" />
        </mxCell>
        <mxCell id="9tO-GS4h1mKYMsfafJvD-15" value="parameter struct 4" style="rounded=0;whiteSpace=wrap;html=1;" vertex="1" parent="9tO-GS4h1mKYMsfafJvD-112">
          <mxGeometry x="70" width="120" height="30" as="geometry" />
        </mxCell>
        <mxCell id="9tO-GS4h1mKYMsfafJvD-113" value="" style="group" vertex="1" connectable="0" parent="1">
          <mxGeometry x="1390" y="70" width="190" height="30" as="geometry" />
        </mxCell>
        <mxCell id="9tO-GS4h1mKYMsfafJvD-16" value="opcode 5" style="rounded=0;whiteSpace=wrap;html=1;" vertex="1" parent="9tO-GS4h1mKYMsfafJvD-113">
          <mxGeometry width="70" height="30" as="geometry" />
        </mxCell>
        <mxCell id="9tO-GS4h1mKYMsfafJvD-18" value="parameter struct 5" style="rounded=0;whiteSpace=wrap;html=1;" vertex="1" parent="9tO-GS4h1mKYMsfafJvD-113">
          <mxGeometry x="70" width="120" height="30" as="geometry" />
        </mxCell>
        <mxCell id="9tO-GS4h1mKYMsfafJvD-114" value="Plugin Index" style="text;html=1;strokeColor=none;fillColor=none;align=center;verticalAlign=middle;whiteSpace=wrap;rounded=0;" vertex="1" parent="1">
          <mxGeometry x="270" y="120" width="60" height="30" as="geometry" />
        </mxCell>
        <mxCell id="9tO-GS4h1mKYMsfafJvD-115" value="Level" style="text;html=1;strokeColor=none;fillColor=none;align=center;verticalAlign=middle;whiteSpace=wrap;rounded=0;" vertex="1" parent="1">
          <mxGeometry x="350" y="120" width="60" height="30" as="geometry" />
        </mxCell>
        <mxCell id="9tO-GS4h1mKYMsfafJvD-116" value="Return Type" style="text;html=1;strokeColor=none;fillColor=none;align=center;verticalAlign=middle;whiteSpace=wrap;rounded=0;" vertex="1" parent="1">
          <mxGeometry x="430" y="120" width="60" height="30" as="geometry" />
        </mxCell>
      </root>
    </mxGraphModel>
  </diagram>
</mxfile>
